<?xml version="1.0" encoding="UTF-8"?>
<svg id="Layer_1" data-name="Layer 1" xmlns="http://www.w3.org/2000/svg" viewBox="0 0 460.27 161.77">
  <defs>
    <style>
      .cls-1 {
        isolation: isolate;
      }

      .cls-2 {
        fill: #facd18;
      }

      .cls-2, .cls-3, .cls-4, .cls-5 {
        stroke-width: 0px;
      }

      .cls-6 {
        stroke: #231f20;
        stroke-miterlimit: 10;
      }

      .cls-6, .cls-3 {
        fill: #fff;
      }

      .cls-4 {
        fill: #030100;
      }

      .cls-5 {
        fill: #070402;
      }
    </style>
  </defs>
  <g class="cls-1">
    <g class="cls-1">
      <path class="cls-2" d="M0,78.82C0,77.28.64,76.52,2.05,76.52h30.08c10.24,0,17.66,1.79,22.27,5.25,4.48,3.58,6.78,8.96,6.78,16.13,0,4.61-1.15,8.32-3.2,11.26-2.18,3.07-5.89,5.38-11.14,6.78v.64c2.69.51,5.25,1.28,7.55,2.18,2.18,1.02,4.1,2.3,5.76,3.84,1.54,1.66,2.69,3.58,3.71,5.89.77,2.3,1.28,5.12,1.28,8.32,0,7.55-2.56,13.31-7.55,17.41-5.12,4.22-12.8,6.27-23.3,6.27H2.05c-1.41,0-2.05-.77-2.05-2.3v-79.36h0ZM27.78,112.49c4.61,0,8.19-.9,11.01-2.94,2.56-1.92,3.97-5.5,3.97-10.88,0-2.56-.26-4.61-.77-6.27-.64-1.54-1.54-2.69-2.56-3.71-1.28-.77-2.69-1.41-4.48-1.79-1.79-.26-3.97-.51-6.53-.51h-9.22v26.11h8.58ZM30.08,150.63c5.38,0,9.6-1.02,12.42-3.07,2.69-1.92,4.1-5.38,4.1-10.5,0-5.38-1.54-9.22-4.35-11.52-3.07-2.3-7.42-3.46-13.06-3.46h-9.98v28.54h10.88-.01Z"/>
      <path class="cls-2" d="M106.5,96.23c3.2,0,6.53.51,9.98,1.28,3.33.9,6.53,2.43,9.34,4.61,2.69,2.3,4.99,5.5,6.78,9.47,1.79,4.1,2.69,9.22,2.69,15.49v2.94c0,1.54-.77,2.18-2.05,2.18h-38.02c.38,7.3,1.79,12.42,4.1,15.49,2.18,3.07,5.5,4.61,9.86,4.61,3.46,0,6.27-.64,8.32-2.18,1.92-1.28,3.46-3.33,4.48-6.14.13-.38.38-.9.64-1.54.26-.51.9-.9,2.18-.9h7.68c1.28,0,1.92.38,2.18.9,0,.64,0,1.15-.13,1.54-.77,3.07-2.05,5.76-3.71,7.94-1.79,2.3-3.97,4.1-6.4,5.5-2.56,1.54-5.38,2.69-8.32,3.33-3.07.77-6.27,1.02-9.6,1.02-4.35,0-8.45-.64-12.16-1.92-3.84-1.28-7.17-3.2-9.86-6.02-2.82-2.56-4.99-6.02-6.53-10.11-1.66-4.1-2.43-8.96-2.43-14.59s.77-10.24,2.43-14.34c1.54-4.1,3.71-7.55,6.53-10.37s6.02-4.74,9.86-6.14c3.71-1.28,7.81-2.05,12.16-2.05h0ZM109.18,105.7c-4.35,0-7.55,1.41-9.73,4.22-2.3,2.94-3.71,6.91-4.22,11.9h27.91c-.26-3.07-.9-5.63-1.79-7.81-1.02-2.05-2.18-3.71-3.46-4.99-1.28-1.15-2.69-2.05-4.22-2.56s-3.07-.77-4.48-.77h-.01Z"/>
      <path class="cls-2" d="M176.89,96.23c3.2,0,6.53.51,9.98,1.28,3.33.9,6.53,2.43,9.34,4.61,2.69,2.3,4.99,5.5,6.78,9.47,1.79,4.1,2.69,9.22,2.69,15.49v2.94c0,1.54-.77,2.18-2.05,2.18h-38.02c.38,7.3,1.79,12.42,4.1,15.49,2.18,3.07,5.5,4.61,9.86,4.61,3.46,0,6.27-.64,8.32-2.18,1.92-1.28,3.46-3.33,4.48-6.14.13-.38.38-.9.64-1.54.26-.51.9-.9,2.18-.9h7.68c1.28,0,1.92.38,2.18.9,0,.64,0,1.15-.13,1.54-.77,3.07-2.05,5.76-3.71,7.94-1.79,2.3-3.97,4.1-6.4,5.5-2.56,1.54-5.38,2.69-8.32,3.33-3.07.77-6.27,1.02-9.6,1.02-4.35,0-8.45-.64-12.16-1.92-3.84-1.28-7.17-3.2-9.86-6.02-2.82-2.56-4.99-6.02-6.53-10.11-1.66-4.1-2.43-8.96-2.43-14.59s.77-10.24,2.43-14.34c1.54-4.1,3.71-7.55,6.53-10.37,2.69-2.69,6.02-4.74,9.86-6.14,3.71-1.28,7.81-2.05,12.16-2.05h0ZM179.58,105.7c-4.35,0-7.55,1.41-9.73,4.22-2.3,2.94-3.71,6.91-4.22,11.9h27.91c-.26-3.07-.9-5.63-1.79-7.81-1.02-2.05-2.18-3.71-3.46-4.99-1.28-1.15-2.69-2.05-4.22-2.56s-3.07-.77-4.48-.77h-.01Z"/>
    </g>
    <g class="cls-1">
      <path class="cls-3" d="M267.77,78.69c0-1.41.64-2.18,2.05-2.18h15.36c1.28,0,2.05.77,2.05,2.18v79.62c0,1.54-.77,2.18-2.05,2.18h-15.36c-1.41,0-2.05-.64-2.05-2.18v-36.35h-29.44v36.35c0,1.54-.77,2.18-2.18,2.18h-15.23c-1.41,0-2.05-.64-2.05-2.18v-79.62c0-1.41.64-2.18,2.05-2.18h15.23c1.41,0,2.18.77,2.18,2.18v32.9h29.44s0-32.9,0-32.9Z"/>
      <path class="cls-3" d="M313.33,90.85c-3.07,0-5.5-1.02-7.55-3.2-2.18-2.05-3.2-4.61-3.2-7.68s1.02-5.5,3.2-7.55c2.05-2.05,4.48-3.07,7.55-3.07,2.82,0,5.38,1.02,7.55,3.07,2.05,2.05,3.07,4.61,3.07,7.55s-1.02,5.63-3.07,7.68c-2.18,2.18-4.74,3.2-7.55,3.2ZM303.61,99.69c0-1.41.64-2.18,2.18-2.18h15.23c.77,0,1.28.26,1.66.64.26.51.51,1.02.51,1.54v58.63c0,1.54-.77,2.18-2.18,2.18h-15.23c-1.54,0-2.18-.64-2.18-2.18v-58.63h0Z"/>
      <path class="cls-3" d="M367.61,144.36l15.62-44.8c.26-.77.64-1.28,1.15-1.66.26-.26.9-.38,1.66-.38h7.04c.51,0,1.02.26,1.41.51.26.38.26.9,0,1.66l-20.86,58.24c-.38.77-.77,1.41-1.28,1.79-.64.51-1.54.77-2.82.77h-11.65c-1.28,0-2.18-.13-2.69-.64-.64-.26-1.15-.9-1.41-1.92l-20.87-57.35c-.9-2.05-.13-3.07,2.3-3.07h13.44c1.54,0,2.69.9,3.46,2.69l15.49,44.16h.01Z"/>
      <path class="cls-3" d="M431.48,96.23c3.2,0,6.53.51,9.98,1.28,3.33.9,6.53,2.43,9.34,4.61,2.69,2.3,4.99,5.5,6.78,9.47,1.79,4.1,2.69,9.22,2.69,15.49v2.94c0,1.54-.77,2.18-2.05,2.18h-38.02c.38,7.3,1.79,12.42,4.1,15.49,2.18,3.07,5.5,4.61,9.86,4.61,3.46,0,6.27-.64,8.32-2.18,1.92-1.28,3.46-3.33,4.48-6.14.13-.38.38-.9.64-1.54.26-.51.9-.9,2.18-.9h7.68c1.28,0,1.92.38,2.18.9,0,.64,0,1.15-.13,1.54-.77,3.07-2.05,5.76-3.71,7.94-1.79,2.3-3.97,4.1-6.4,5.5-2.56,1.54-5.38,2.69-8.32,3.33-3.07.77-6.27,1.02-9.6,1.02-4.35,0-8.45-.64-12.16-1.92-3.84-1.28-7.17-3.2-9.86-6.02-2.82-2.56-4.99-6.02-6.53-10.11-1.66-4.1-2.43-8.96-2.43-14.59s.77-10.24,2.43-14.34c1.54-4.1,3.71-7.55,6.53-10.37,2.69-2.69,6.02-4.74,9.86-6.14,3.71-1.28,7.81-2.05,12.16-2.05h0ZM434.17,105.7c-4.35,0-7.55,1.41-9.73,4.22-2.3,2.94-3.71,6.91-4.22,11.9h27.91c-.26-3.07-.9-5.63-1.79-7.81-1.02-2.05-2.18-3.71-3.46-4.99-1.28-1.15-2.69-2.05-4.22-2.56s-3.07-.77-4.48-.77h0Z"/>
    </g>
  </g>
  <polygon class="cls-6" points="155.09 40.92 150.19 39.94 144.4 38.53 138.11 36.18 134.35 33.41 131.06 29.82 129.78 26.55 128.97 17.41 131.06 11.2 134.68 7.28 141.05 5.98 145.84 5.98 149.38 8.55 152.81 11.85 155.09 15.98 157.74 20.84 158.69 26.06 159.42 31.61 159.42 35.2 160.48 38.53 160.48 40.92 158.69 42.55 155.09 40.92"/>
  <polygon class="cls-6" points="175.18 54.8 183.02 56.18 189.38 58.42 198.36 60.68 205.71 65.25 208.33 69.17 209.31 76.35 209.31 81.74 205.22 84.85 199.83 87.95 192.24 87.95 186.93 87.95 182.69 84.52 179.59 79.78 177.47 74.72 175.83 70.43 175.18 65.09 174.2 60.03 173.54 56.18 175.18 54.8"/>
  <path class="cls-2" d="M149.21,66.86c3.17,3.26,6.31,6.55,9.53,9.76,1.01,1,.89,1.44-.36,2-2.53,1.15-5.21,1.57-7.93,1.84-.89.09-1.6-.27-2.22-.92-4.04-4.21-8.1-8.4-12.16-12.59-.44-.45-.78-.92-.7-1.6.35-2.87.86-5.69,2.22-8.29.61-1.16,1.15-1.1,2.01-.2,3.19,3.35,6.43,6.64,9.66,9.95l-.05.05Z"/>
  <path class="cls-2" d="M155.9,60.01c-3.12-3.2-6.21-6.44-9.37-9.6-1.03-1.02-.93-1.5.42-1.94,2.91-.94,5.91-1.32,8.94-1.5.97-.06,1.53.43,2.13,1.05,3.16,3.27,6.31,6.55,9.52,9.77.81.81,1.16,1.65,1.18,2.8.04,2.84-.45,5.57-1.26,8.28-.5,1.66-.94,2.22-2.39.63-2.97-3.24-6.1-6.33-9.17-9.48h0Z"/>
  <g>
    <path class="cls-4" d="M215.19,76.92c.15-.7.22-1.31.18-2.13-.02-.32-.03-.86-.19-1.94-.07-.46-.12-.84-.16-1.11-.07-.27-.19-.69-.32-1.2-.25-.96-.31-1.28-.48-1.8,0,0-.19-.6-.48-1.32-.19-.46-1.64-3.92-4.52-6.6-2.19-2.03-4.88-3.47-8.08-4.37-5.75-1.62-11.48-3.33-17.74-5.15,4.53-2.59,6.27-6.33,6.33-10.97,0-.74.11-1.34,1-1.52,1.74-.35,3.43-1.18,5.12.29,2.19,1.91,3.94,2,5.62.49,2.94-2.63,1.76-6.84-2.43-8.28-3.28-1.13-6.58-.89-9.79.46-1.13.48-2.08.97-3.24-.57-.66-.87-.75-2.04-.36-3.06,1.14-3,1.28-6.1.64-9.25-.28-1.38-.9-2.56-1.86-3.58-1.97-2.09-4.33-2.35-6.25-.67-1.69,1.47-1.99,4.32-.25,6.16,1.86,1.97.59,3.83.31,5.74-.13.85-.96.56-1.52.58-4.49.15-8.25,1.76-11.11,5.83-1.47-5.18-2.84-10.12-4.28-15.02-.92-3.12-1.42-6.39-3.16-9.22-.42-.68-1.26-1.94-2.66-3.28-3.96-3.78-8.74-4.5-10.45-4.73-1-.14-4.73-.81-9.53,1.13-1.99.8-3.96,1.44-5.11,2.39-1.52,1.25-2.64,2.14-3.39,2.92-.79.79-2.17,2.33-3.06,3.98-.84,1.56-1.31,2.95-1.54,4.01-.17,1.2-.42,2.59-.33,4.25.12,2.31.6,4.24,1.07,5.67.43,2.01,1.39,5.15,3.68,8.34.68.95,3.27,4.44,8.08,6.94,1.83.95,3.92,1.42,6.18,2.21-3.74,2.22-6.93,4.65-9.2,8.04-5.28,7.86-6.61,16.24-2.63,25,1.12,2.47.7,4.68.35,7.05-.49,3.34-.13,3.84,3.07,3.12,2.73-.61,5.04-.21,7.6,1,11.51,5.46,24.82,1.41,31.97-9.48.33-.5.68-.98,1.35-1.94,1.91,11.08,8.52,16.77,19.08,18.8.54,0,1.34.09,2.23,0,1.72-.17,3.8-.54,6.11-1.35,3.1-1.1,4.09-1.78,4.57-2.17.04-.03,1.11-.69,1.54-1.14,1.58-1.33,1.86-1.46,2.36-2.04,1.23-1.44,1.83-2.24,2.8-3.53,1.4-1.87,1.93-3.79,2.08-4.12.63-1.34.71-2.33.81-2.81v-.05h0ZM155.9,46.97c.97-.06,1.53.43,2.13,1.05,3.16,3.27,6.31,6.55,9.52,9.77.81.81,1.16,1.65,1.18,2.8.04,2.84-.45,5.57-1.26,8.28-.5,1.66-.94,2.22-2.39.63-2.97-3.24-6.1-6.33-9.17-9.48-3.12-3.2-6.21-6.44-9.37-9.6-1.03-1.02-.93-1.5.42-1.94,2.91-.94,5.91-1.32,8.94-1.5h0ZM141.57,33.76c-8.74-2.28-12.15-11.29-9.79-17.67,2.58-6.96,10.23-9.69,16.08-5.68,1.48,1.02,2.56,2.33,3.15,4.05,2.68,7.89,4.42,16.03,6.73,24.07-5.58-1.66-10.83-3.37-16.17-4.76h0ZM158.39,78.62c-2.53,1.15-5.21,1.57-7.93,1.84-.89.09-1.6-.27-2.22-.92-4.04-4.21-8.1-8.4-12.16-12.59-.44-.45-.78-.92-.7-1.6.35-2.87.86-5.69,2.22-8.29.61-1.16,1.15-1.1,2.01-.2,3.19,3.35,6.43,6.64,9.66,9.95l-.05.05c3.17,3.26,6.31,6.55,9.53,9.76,1.01,1,.89,1.44-.36,2ZM198.28,85.4c-6.74,1.71-13.2-1.54-15.55-8.11-2.16-6.05-3.74-12.28-5.26-18.87,7.54,2.24,14.82,4.27,22,6.59,4.81,1.55,7.32,5.63,7.09,10.67-.2,4.47-3.68,8.55-8.29,9.71h0Z"/>
    <g>
      <path class="cls-5" d="M215.19,76.92c.99-8.36-4.36-17.28-12.46-19.91-5.52-1.71-13.71-3.96-19.35-5.62l-.25-.07c1.93-1.08,3.68-2.56,4.8-4.47,1.1-1.83,1.58-3.97,1.64-6.09,0-.77.02-1.94,1.06-2.1,1.31-.26,2.64-.84,4.03-.43,1.08.32,1.74,1.27,2.72,1.74,2.95,1.8,6.39-2.04,5.34-4.99-1.53-4.18-7.12-4.69-10.9-3.85-1.04.24-2.02.61-3.01,1.04-.49.2-1.12.39-1.72.18-.59-.21-.99-.66-1.33-1.1-1.48-2.02.32-4.23.47-6.36.31-2.09.18-4.25-.29-6.3-.49-1.97-1.92-3.83-3.82-4.57-3.86-1.34-6.76,3.73-3.94,6.58,1.63,1.55.93,3.79.43,5.59-.06.31-.07.63-.28.9-.3.37-.74.36-1,.35-4.79-.26-9.38,2.21-11.87,6.29l-.21-.72-4.85-16.95c-1.75-9.58-8.45-14.98-18.11-15.15-2.93-.03-5.64.89-8.33,2.02-1.37.55-2.67,1.05-3.71,2.02-2.28,1.8-4.42,3.75-5.83,6.28-2.41,4.15-2.31,9.18-.83,13.69,1.3,6.41,5.67,11.99,11.47,14.99,2.12,1.1,4.63,1.62,6.94,2.51l-.71.41c-10.88,5.65-17.14,19.42-12.41,31.05.87,1.88,1.62,3.96,1.35,6.06-.1,1.55-.51,3.04-.53,4.57,0,.48.09.96.43,1.11.86.3,1.94-.07,2.87-.23,3.16-.76,6.23.51,9.03,1.81,9.58,3.96,21.16.8,27.81-7.05,1.44-1.61,2.57-3.47,3.85-5.23.41,2.47,1.06,4.92,2.12,7.19,1.97,4.38,5.64,7.87,10.04,9.78,2.78,1.16,5.76,2.26,8.77,2.15,3.79-.38,7.73-1.39,10.93-3.5,4.68-3.14,8.57-7.99,9.64-13.62h0ZM215.19,76.92c-1.04,5.64-4.94,10.53-9.59,13.69-3.22,2.15-7.16,3.18-10.98,3.58-3.07.13-6.05-.97-8.86-2.12-6.87-2.81-11.25-9.56-12.31-16.75l.26.06c-1.18,1.67-2.27,3.44-3.64,4.99-6.71,8-18.47,11.25-28.22,7.27-2.77-1.25-5.67-2.49-8.76-1.74-1.06.16-2.08.62-3.2.2-1.09-.63-.68-2.13-.61-3.15.28-2,.69-4.04.16-6.01-.28-.79-.74-2.05-1.11-2.84-3.26-7.83-1.53-16.92,3.25-23.74,2.33-3.52,5.77-6.08,9.31-8.18l.07.69c-2.05-.73-4.25-1.2-6.28-2.25-6.02-3.09-10.59-8.86-11.97-15.51-2.15-6.01-1.26-13.24,3.57-17.96,2.14-2.15,4.43-4.17,7.32-5.12,4.07-1.86,8.74-2.62,13.15-1.53,8.14,1.63,12.95,7.43,14.42,15.36l4.77,16.96-.64-.11c2.46-3.7,6.8-5.9,11.22-5.94.39-.09,1.05.17,1.3-.08.03-.04.06-.12.08-.22.21-1.38.99-2.89.57-4.2-.3-1.03-1.33-1.66-1.68-2.69-.44-1.06-.46-2.29-.06-3.36,1.51-3.77,5.94-3.83,8.24-.72,2.09,2.61,2.13,6.29,1.75,9.46-.12,2.16-1.91,4.25-.58,6.01.58.91,1.49,1.28,2.5.78.98-.41,2.02-.81,3.08-1.04,4.7-1.38,13.67,1.07,11.07,7.43-.76,1.44-2.26,2.75-3.98,2.63-1.72-.06-2.83-1.71-4.25-2.24-.99-.31-2.05-.02-3.09.24-.51.16-1.12.15-1.39.52-.28.37-.21.94-.25,1.48,0,4.4-2.49,8.56-6.4,10.61l-.02-.2,9.67,2.83c6.28,1.99,13.61,2.97,17.83,8.61,3.07,3.97,4.95,9.27,4.26,14.3h.02,0Z"/>
      <path class="cls-5" d="M155.9,46.97c1.41-.21,2.57,1.58,3.48,2.38l3.07,3.1,3.11,3.06c.89.99,2.35,2.05,3.01,3.24.69,1.41.43,2.96.39,4.45-.18,2.23-.59,4.38-1.31,6.51-.97,2.61-2.82.18-3.91-.91-5.55-5.68-11.04-11.62-16.49-17.42l-.75-.8c-.34-.4-.95-.91-.7-1.51.33-.51.97-.59,1.48-.77,2.8-.84,5.71-1.17,8.61-1.33h.01ZM155.9,46.97c-2.9.2-5.8.58-8.57,1.46-.48.17-1.07.29-1.35.72-.13.78,1.03,1.4,1.49,2,1.97,1.92,7.31,7.18,9.34,9.18,2.1,2.1,7.12,7.27,9.11,9.34.23.22.53.34.53.3.05,0,.26-.28.37-.58.69-1.99,1.2-4.14,1.46-6.25.1-1.36.41-2.89-.15-4.16-.27-.62-.8-1.1-1.3-1.64-.94-1.01-3.5-3.74-4.48-4.78l-3.02-3.15c-.9-.8-2.01-2.62-3.43-2.43h0Z"/>
      <path class="cls-5" d="M141.57,33.76c-9.34-2.11-14.23-14.33-7.7-21.78,4.63-5.83,14.97-4.95,17.6,2.34,2.66,7.91,4.26,16.13,6.42,24.16l.08.28-.28-.09c-5.35-1.71-10.7-3.45-16.12-4.91h0ZM141.57,33.76c5.45,1.37,10.8,3.13,16.21,4.61l-.2.2c-2.43-7.97-4.33-16.07-7.02-23.94-1.19-3.44-4.91-5.54-8.44-5.63-4.45-.13-8.53,3.04-10.09,7.16-2.82,7.25,2.06,15.83,9.54,17.61h0Z"/>
      <path class="cls-5" d="M158.39,78.62c-2.09.97-4.37,1.46-6.64,1.76-1.13.18-2.42.35-3.33-.53-1.65-1.6-10.42-10.36-12.23-12.15-.37-.41-.89-.78-1.16-1.5-.25-.62-.02-1.32.02-1.92.34-2.61.9-5.25,2.2-7.57.17-.27.33-.57.72-.82.73-.48,1.58.2,2.03.72,3.24,3.36,6.39,6.81,9.58,10.22-.04.04-.18.16-.21.2v-.31c1.87,1.99,3.73,4,5.62,5.97l2.84,2.96c.85,1,2.75,2.17.56,2.99h0v-.02h0ZM158.39,78.62c2.16-.85.27-1.94-.6-2.94l-2.89-2.91c-1.98-1.99-4-3.94-5.99-5.91l.16-.16.05-.05v.31c-3.47-3.37-6.86-6.87-10.33-10.22-.2-.11-.24-.11-.32-.05-1.68,2.34-2.18,5.71-2.61,8.56-.17.84.38,1.19.97,1.84l9.38,10.1c1.23,1.09,2.09,2.96,3.83,3.21,2.84-.14,5.73-.64,8.36-1.78h0Z"/>
      <path class="cls-5" d="M198.28,85.4c-6.46,1.88-13.61-1.75-15.79-8.17-2.37-6.34-4.14-12.89-5.65-19.47l.76.22,6.06,1.78c3.01.92,9.06,2.78,12.06,3.71,1.77.62,4.35,1.2,5.97,2.19,8.26,4.97,5.77,17.57-3.41,19.74h0ZM198.28,85.4c4.06-1.06,7.49-4.54,8.09-8.71.56-4.09-1.19-8.59-4.97-10.51-1.54-.89-4.2-1.41-5.92-1.94l-6.06-1.76c-3.02-.86-9.09-2.68-12.08-3.61l.58-.55c1.44,6.31,2.87,12.64,4.95,18.78,1.95,6.48,8.93,10.07,15.41,8.31h0Z"/>
    </g>
  </g>
</svg>